<?xml version="1.0" standalone="no"?>
<!DOCTYPE svg PUBLIC "-//W3C//DTD SVG 1.1//EN" "http://www.w3.org/Graphics/SVG/1.1/DTD/svg11.dtd" >
<!--
2013-9-30: Created.
-->
<svg>
<metadata>
Created by iconfont
</metadata>
<defs>

<font id="font_family" horiz-adv-x="1024" >
  <font-face
    font-family="font_family"
    font-weight="500"
    font-stretch="normal"
    units-per-em="1024"
    ascent="896"
    descent="-128"
  />
    <missing-glyph />
    
    <glyph glyph-name="icon-test" unicode="&#58917;" d="M808.6 492.8c0 178.8-129.8 308.5-308.5 308.5-170.1 0-308.5-138.4-308.5-308.5 0-125.6 170.6-338.3 262.3-452.6l6.8-8.4c9.6-12 24-18.9 39.5-18.9 15.4 0 29.8 6.9 39.5 18.9l6.8 8.4c91.5 114.3 262.1 327 262.1 452.6z m-310.1-89.4c-62.9 0-114 51.1-114 114s51.1 114 114 114 114-51.1 114-114-51.1-114-114-114zM500.1 828.2c-184.9 0-335.4-150.4-335.4-335.4 0-135 174.5-352.5 268.2-469.4l6.7-8.4c14.8-18.4 36.8-29 60.4-29s45.6 10.6 60.4 29l6.8 8.4C661 140.3 835.4 357.8 835.4 492.8c0 194.3-141 335.4-335.3 335.4z m0-815.3c-15.4 0-29.8 6.9-39.5 18.9l-6.8 8.4c-91.7 114.3-262.3 327-262.3 452.6 0 170.1 138.4 308.5 308.5 308.5 178.8 0 308.5-129.8 308.5-308.5 0-125.6-170.6-338.3-262.3-452.6l-6.8-8.4c-9.5-12-23.9-18.9-39.3-18.9zM498.5 517.4m-87.2 0a87.2 87.2 0 1 1 174.4 0 87.2 87.2 0 1 1-174.4 0ZM612.5 517.4c0 62.9-51.1 114-114 114s-114-51.1-114-114 51.1-114 114-114 114 51.1 114 114z m-201.2 0c0 48.1 39.1 87.2 87.2 87.2s87.2-39.1 87.2-87.2-39.1-87.2-87.2-87.2-87.2 39.1-87.2 87.2z"  horiz-adv-x="1024" />

    
    <glyph glyph-name="bojuelvpaiicontilian_huabanfuben" unicode="&#58885;" d="M797.4912 651.5712c-11.6224 3.584-26.8288 2.4576-39.3216-8.6528-8.5504 9.3696-21.0432 15.4624-36.6592 13.5168-22.7328-2.8672-38.6048-21.7088-38.6048-45.8752 0-20.7872 11.4688-42.6496 34.1504-64.9216 15.872-15.5648 31.6416-25.7024 32.3072-26.1632 2.2528-1.4336 4.8128-2.1504 7.3728-2.1504s5.12 0.7168 7.3728 2.2016c0.5632 0.3584 14.08 9.1136 28.5184 22.528 20.3776 18.9952 32.4608 37.632 35.7888 55.4496 4.5568 23.9104-8.7552 47.1552-30.9248 54.0672z m4.096-48.9984c-3.9424-20.736-29.2864-43.3152-44.9024-54.8864-17.152 12.7488-46.4384 39.424-46.4384 62.8736 0 12.4928 7.8848 17.92 14.6944 18.7392 0.4608 0.0512 1.1264 0.1024 1.8944 0.1024 4.5568 0 13.2096-1.8432 16.64-15.3088a13.696 13.696 0 0 1 12.1344-10.2912c5.7856-0.4608 11.264 2.7648 13.6192 8.1408 4.864 11.008 12.2368 15.9744 20.1216 13.5168 7.5776-2.3552 14.4384-11.2128 12.2368-22.8864zM801.5872 602.5728c-3.9424-20.736-29.2864-43.3152-44.9024-54.8864-17.152 12.7488-46.4384 39.424-46.4384 62.8736 0 12.4928 7.8848 17.92 14.6944 18.7392 0.4608 0.0512 1.1264 0.1024 1.8944 0.1024 4.5568 0 13.2096-1.8432 16.64-15.3088a13.696 13.696 0 0 1 12.1344-10.2912c5.7856-0.4608 11.264 2.7648 13.6192 8.1408 4.864 11.008 12.2368 15.9744 20.1216 13.5168 7.5776-2.3552 14.4384-11.2128 12.2368-22.8864zM627.456 775.2192c-10.8032 3.3792-24.9856 2.4576-36.7616-7.5776-8.8064 9.1648-21.0944 13.824-34.304 12.1856-21.6576-2.7136-36.8128-20.6336-36.8128-43.6224 0-19.6608 10.8032-40.192 32.1024-61.1328 14.848-14.5408 29.5936-24.064 30.1568-24.4224 2.304-1.4848 4.864-2.2016 7.424-2.2016s5.12 0.768 7.3728 2.2016c0.5632 0.3584 13.1584 8.5504 26.6752 21.0944 19.0976 17.8176 30.4128 35.328 33.6384 52.1216 4.2496 22.7328-8.3968 44.8-29.4912 51.3536z m2.6112-46.2848c-3.584-18.7904-26.368-39.2704-40.8064-50.0736-5.0176 3.7376-11.9296 9.3184-18.7904 16.0768-15.4112 15.2064-23.552 29.4912-23.552 41.2672 0 10.9568 6.912 15.7696 12.8512 16.4864 0.4096 0.0512 0.9728 0.1024 1.6384 0.1024 3.9424 0 11.5712-1.6384 14.592-13.568 1.4336-5.632 6.2976-9.7792 12.1344-10.2912 5.7856-0.4608 11.264 2.816 13.6192 8.1408 2.5088 5.7344 8.192 14.9504 17.6128 12.0832 6.656-2.0992 12.6464-9.8816 10.7008-20.224zM630.0672 728.9344c-3.584-18.7904-26.368-39.2704-40.8064-50.0736-5.0176 3.7376-11.9296 9.3184-18.7904 16.0768-15.4112 15.2064-23.552 29.4912-23.552 41.2672 0 10.9568 6.912 15.7696 12.8512 16.4864 0.4096 0.0512 0.9728 0.1024 1.6384 0.1024 3.9424 0 11.5712-1.6384 14.592-13.568 1.4336-5.632 6.2976-9.7792 12.1344-10.2912 5.7856-0.4608 11.264 2.816 13.6192 8.1408 2.5088 5.7344 8.192 14.9504 17.6128 12.0832 6.656-2.0992 12.6464-9.8816 10.7008-20.224zM192.4096 454.144l-0.5632-0.6144c-0.1024 0.1024-0.2048 0.2048-0.256 0.3072 0.256 0.1024 0.512 0.2048 0.8192 0.3072zM192.4096 454.144l-0.5632-0.6144c-0.1024 0.1024-0.2048 0.2048-0.256 0.3072 0.256 0.1024 0.512 0.2048 0.8192 0.3072zM192.4096 454.144l-0.5632-0.6144c-0.1024 0.1024-0.2048 0.2048-0.256 0.3072 0.256 0.1024 0.512 0.2048 0.8192 0.3072zM791.296 362.8544c0 7.5264-6.144 13.6192-13.7216 13.6192h-152.2688c27.5968 26.624 55.808 61.7472 62.8736 99.0208 7.7824 41.0112-14.7968 80.7936-52.5312 92.5184-28.2112 8.8064-55.7568-0.9728-75.264-25.1392-14.4896 23.3984-37.376 34.1504-59.392 34.9184l16.896 18.5856c5.0688 5.632 4.608 14.2336-0.9728 19.3536l-87.552 79.36a13.3632 13.3632 0 0 1-9.8304 3.5328c-3.6352-0.1536-7.0144-1.792-9.472-4.4544l-35.4816-39.168-61.44 55.0912c-11.3152 10.1376-26.7264 13.4144-41.216 8.8064a41.9328 41.9328 0 0 1-28.3648-31.1808l-27.0336-121.5488c-17.1008-3.1232-32.5632-11.7248-44.3904-24.7808a78.66368 78.66368 0 0 1-20.1728-45.4144L35.072 457.728c-14.4384-4.7104-25.0368-16.4352-28.2112-31.2832-0.6656-3.072-1.024-6.144-1.024-9.1648 0-11.7248 4.864-22.8352 13.7728-31.0272l60.7232-55.7056-37.0688-40.8576c-5.0688-5.632-4.6592-14.2848 0.9728-19.3536l87.552-79.36c2.5088-2.304 5.7344-3.584 9.1648-3.584 0.2048 0 0.4608 0 0.6656 0.0512 3.584 0.1536 7.0144 1.792 9.472 4.4544L271.36 324.5568l0.2048-272.896c0-22.8352 18.5856-41.3696 41.3696-41.3696h437.248c22.784 0 41.3184 18.5344 41.3184 41.3696l-0.2048 311.1936zM499.0976 550.5536c25.9584 0 40.8576-21.4528 45.824-41.0624 1.4336-5.632 6.2976-9.7792 12.1344-10.24 5.7856-0.4608 11.264 2.7648 13.6192 8.0896 12.6976 28.7744 33.9456 41.6768 56.832 34.56 20.7872-6.4512 39.7312-30.1056 33.792-61.3376-7.5776-40.0384-47.4624-79.5648-77.1584-104.0896h-51.968c-7.8336 6.5024-16.4352 14.0288-24.8832 22.4256-25.4464 24.9856-55.7568 62.72-55.7568 100.2496 0 31.6928 20.7872 48.4352 41.3696 50.9952 2.1504 0.3072 4.1984 0.4096 6.1952 0.4096z m-8.0896-174.08H318.464L378.6752 442.88l0.0512 0.0512 45.6192 50.3296c2.6624-44.6464 35.2256-86.4256 66.6624-116.7872zM376.576 616.4992l9.1648 10.1376 9.216 10.1376 26.1632 28.8768L488.448 604.6208 367.616 471.3984l-44.1856 40.0896-11.6736 10.5984-11.4176 10.3424 0.4608 0.512 75.776 83.5584zM270.2336 681.8304c1.6896 7.5776 7.5776 10.1888 10.0352 11.008 1.024 0.3584 2.7648 0.768 4.7616 0.768 1.4336 0 3.072-0.2048 4.7616-0.8192 1.6896-0.5632 3.4304-1.536 5.12-3.072l61.2864-54.9376-56.7808-62.6688 9.7792 34.6624c2.048 7.2704-2.2016 14.848-9.472 16.896a13.7728 13.7728 0 0 1-16.896-9.472l-15.616-55.4496c-7.1168 3.6864-14.7456 6.2464-22.6816 7.5776l25.7024 115.5072zM181.8624 505.3952c2.2528 6.3488 5.7344 12.3392 10.496 17.6128 5.12 5.5808 11.2128 9.984 17.92 12.8512 4.5568 1.9968 9.3696 3.2768 14.3872 3.84 1.2288 0.2048 2.5088 0.3072 3.7888 0.3584 0.8704 0.0512 1.7408 0.1024 2.6112 0.1024 2.56 0 5.0688-0.2048 7.5264-0.5632 3.8912-0.5632 7.6288-1.536 11.2128-2.9184 4.096-1.6384 8.0384-3.7376 11.6736-6.4l-10.9056-11.9808-10.0864-11.1104-9.4208-10.4448-7.168-7.8848-9.472-10.4448-10.0352-11.0592-11.9808-13.2096-0.5632-0.6144c-0.1024 0.1024-0.2048 0.2048-0.256 0.3072-5.7856 6.656-9.5744 14.4384-11.4176 22.6304-1.024 4.5568-1.4336 9.2672-1.2288 13.9776 0.2048 5.0688 1.2288 10.1376 2.9184 14.9504zM38.0928 406.4256c-5.6832 5.2224-5.0688 11.6736-4.5056 14.2336 0.512 2.5088 2.6112 8.6528 9.984 11.1104l110.5408 36.1472c2.304-9.0624 6.2976-17.8176 11.8784-25.7024l-54.0672-24.7296c-6.8608-3.1232-9.8816-11.264-6.7584-18.1248 3.1744-6.8608 11.264-9.8816 18.1248-6.7584l22.7328 10.3936-47.3088-52.1728L38.0928 406.4256z m101.9392-186.0096L72.704 281.4464l27.8016 30.6176 9.1648 10.1376 9.216 10.1376 75.8784 83.6608 0.7168 0.8192 3.2768 3.584 9.1648-8.2432 0.3584-0.3584 11.3152-10.2912 46.4896-42.0864-126.0544-139.008z m110.0288 190.4128l-12.8 11.6224-10.9568 9.9328-4.7616 4.3008-4.4032 3.9936 14.2848 15.7696 32.6656 35.9936 14.7968 16.2816 3.072 3.4304 11.4176-10.3424 2.4064-2.2016 14.6944-13.312 38.7584-35.1744-64.8192-71.424-34.3552 31.1296z m500.1216-373.1968H607.744l-0.2048 280.2176a13.62944 13.62944 0 0 1-13.6704 13.6192c-7.5776 0-13.6704-6.0928-13.6704-13.6704l0.2048-280.1664H483.8912l-0.2048 281.6c0 7.5264-6.144 13.6192-13.6704 13.6192-3.7888 0-7.2192-1.536-9.6768-3.9936-2.4576-2.4576-3.9936-5.888-3.9936-9.6768l0.2048-281.5488H312.9344c-7.7312 0-14.0288 6.2976-14.0288 14.0288l-0.256 297.472h465.3056l0.2048-297.472c0-7.7312-6.2464-14.0288-13.9776-14.0288zM266.0864 359.424l-126.0544-139.008-67.328 61.0304 27.8016 30.6176 9.1648 10.1376 9.216 10.1376 75.8784 83.6608 0.7168 0.8192 3.2768 3.584 9.1648-8.2432 0.3584-0.3584 11.3152-10.2912zM488.448 604.6208L367.616 471.3984l-44.1856 40.0896-11.6736 10.5984-11.4176 10.3424 0.4608 0.512 75.776 83.5584 9.1648 10.1376 9.216 10.1376 26.1632 28.8768zM349.2352 451.1232l-64.8192-71.424-34.3552 31.1296-12.8 11.6224-10.9568 9.9328-4.7616 4.3008-4.4032 3.9936 14.2848 15.7696 32.6656 35.9936 14.7968 16.2816 3.072 3.4304 11.4176-10.3424 2.4064-2.2016 14.6944-13.312zM661.2992 480.5632c-7.5776-40.0384-47.4624-79.5648-77.1584-104.0896h-51.968c-7.8336 6.5024-16.4352 14.0288-24.8832 22.4256-25.4464 24.9856-55.7568 62.72-55.7568 100.2496 0 31.6928 20.7872 48.4352 41.3696 50.9952 2.1504 0.3072 4.1984 0.4096 6.1952 0.4096 25.9584 0 40.8576-21.4528 45.824-41.0624 1.4336-5.632 6.2976-9.7792 12.1344-10.24 5.7856-0.4608 11.264 2.7648 13.6192 8.0896 12.6976 28.7744 33.9456 41.6768 56.832 34.56 20.7872-6.4512 39.7312-30.1056 33.792-61.3376zM764.16 51.6608c0-7.7312-6.2464-14.0288-13.9776-14.0288H607.744l-0.2048 280.2176a13.62944 13.62944 0 0 1-13.6704 13.6192c-7.5776 0-13.6704-6.0928-13.6704-13.6704l0.2048-280.1664H483.8912l-0.2048 281.6c0 7.5264-6.144 13.6192-13.6704 13.6192-3.7888 0-7.2192-1.536-9.6768-3.9936-2.4576-2.4576-3.9936-5.888-3.9936-9.6768l0.2048-281.5488H312.9344c-7.7312 0-14.0288 6.2976-14.0288 14.0288l-0.256 297.472h465.3056l0.2048-297.472zM261.4784 530.2784l-10.9056-11.9808-10.0864-11.1104-9.4208-10.4448-7.168-7.8848-9.472-10.4448-10.0352-11.0592-11.9808-13.2096c-0.3072-0.1024-0.5632-0.2048-0.8192-0.3072-5.7856 6.656-9.5744 14.4384-11.4176 22.6304-1.024 4.5568-1.4336 9.2672-1.2288 13.9776 0.2048 5.0688 1.2288 10.1376 2.9184 14.9504 2.2528 6.3488 5.7344 12.3392 10.496 17.6128 5.12 5.5808 11.2128 9.984 17.92 12.8512 4.5568 1.9968 9.3696 3.2768 14.3872 3.84 1.2288 0.2048 2.5088 0.3072 3.7888 0.3584 0.8704 0.0512 1.7408 0.1024 2.6112 0.1024 2.56 0 5.0688-0.2048 7.5264-0.5632 3.8912-0.5632 7.6288-1.536 11.2128-2.9184 4.096-1.6384 8.0384-3.7376 11.6736-6.4zM309.1968 606.7712c2.048 7.2704-2.2016 14.848-9.472 16.896a13.7728 13.7728 0 0 1-16.896-9.472l-15.616-55.4496c-7.1168 3.6864-14.7456 6.2464-22.6816 7.5776l25.7024 115.5072c1.6896 7.5776 7.5776 10.1888 10.0352 11.008 1.024 0.3584 2.7648 0.768 4.7616 0.768 1.4336 0 3.072-0.2048 4.7616-0.8192 1.6896-0.5632 3.4304-1.536 5.12-3.072l61.2864-54.9376-56.7808-62.6688 9.7792 34.6624zM123.2896 392.6016l22.7328 10.3936-47.3088-52.1728L38.0928 406.4256c-5.6832 5.2224-5.0688 11.6736-4.5056 14.2336 0.512 2.5088 2.6112 8.6528 9.984 11.1104l110.5408 36.1472c2.304-9.0624 6.2976-17.8176 11.8784-25.7024l-54.0672-24.7296c-6.8608-3.1232-9.8816-11.264-6.7584-18.1248 3.1744-6.8608 11.264-9.8816 18.1248-6.7584z"  horiz-adv-x="1024" />

    
    <glyph glyph-name="doctor" unicode="&#59148;" d="M813.056 663.552L621.568 774.144c-43.008 24.576-113.664 24.576-156.672 0L274.432 663.552c-43.008-24.576-43.008-65.536 0-91.136l191.488-110.592c43.008-24.576 113.664-24.576 156.672 0l190.464 110.592c44.032 25.6 43.008 66.56 0 91.136M274.432 572.4159999999999c-43.008 24.576-44.032 65.536 0 91.136l190.464 110.592c43.008 24.576 113.664 24.576 156.672 0l191.488-110.592c43.008-24.576 44.032-65.536 0-91.136L623.616 461.824c-43.008-24.576-113.664-24.576-156.672 0L274.432 572.4159999999999m545.792 95.232L628.736 778.24c-47.104 27.648-123.904 27.648-171.008 0L267.264 667.648c-47.104-27.648-47.104-71.68 1.024-99.328l191.488-110.592c47.104-27.648 123.904-27.648 171.008 0L821.248 568.3199999999999c47.104 27.648 46.08 71.68-1.024 99.328M890.88-76.79999999999995H196.608v31.744c0 101.376 81.92 183.296 183.296 183.296H706.56c102.4 0 184.32-81.92 184.32-183.296V-76.79999999999995zM906.24-92.15999999999997H181.248v47.104c0 109.568 89.088 198.656 198.656 198.656H706.56c109.568 0 198.656-89.088 198.656-198.656v-47.104z m-694.272 30.72h663.552v16.384c0 92.16-75.776 167.936-167.936 167.936h-327.68c-92.16 0-167.936-75.776-167.936-167.936v-16.384zM746.496 431.104H342.016c-12.288 0-21.504 10.24-21.504 21.504V547.8399999999999c0 12.288 10.24 21.504 21.504 21.504h404.48c12.288 0 21.504-10.24 21.504-21.504v-95.232c0-11.264-9.216-21.504-21.504-21.504zM746.496 415.744H342.016c-20.48 0-36.864 16.384-36.864 36.864V547.8399999999999c0 20.48 16.384 36.864 36.864 36.864h404.48c20.48 0 36.864-16.384 36.864-36.864v-95.232c0-19.456-16.384-36.864-36.864-36.864zM342.016 555.008c-4.096 0-6.144-3.072-6.144-6.144v-95.232c0-4.096 3.072-6.144 6.144-6.144h404.48c4.096 0 6.144 3.072 6.144 6.144V547.8399999999999c0 4.096-3.072 6.144-6.144 6.144H342.016zM667.648 105.47199999999998l-124.928-71.68-122.88 71.68V277.504h247.808zM542.72 15.360000000000014l-138.24 80.896V292.86400000000003h278.528v-196.608L542.72 15.360000000000014z m-107.52 98.304L542.72 51.200000000000045l109.568 63.488V262.144H435.2v-148.48zM568.32 164.86400000000003h-49.152c-77.824 0-141.312 63.488-141.312 141.312V412.672c0 10.24 8.192 18.432 18.432 18.432h293.888c10.24 0 18.432-8.192 18.432-18.432v-107.52c1.024-77.824-62.464-140.288-140.288-140.288zM568.32 149.50400000000002h-49.152c-86.016 0-156.672 70.656-156.672 156.672V412.672c0 18.432 15.36 33.792 33.792 33.792h293.888c18.432 0 33.792-15.36 33.792-33.792v-107.52c1.024-86.016-69.632-155.648-155.648-155.648z m-171.008 266.24c-2.048 0-3.072-1.024-3.072-3.072v-107.52C394.24 235.51999999999998 450.56 179.20000000000005 520.192 179.20000000000005h49.152c69.632 0 125.952 56.32 125.952 125.952V412.672c0 2.048-1.024 3.072-3.072 3.072H397.312zM561.152 189.44000000000005h-60.416c-7.168 0-13.312 6.144-13.312 13.312 0 7.168 6.144 13.312 13.312 13.312h60.416c7.168 0 13.312-6.144 13.312-13.312 0-7.168-6.144-13.312-13.312-13.312zM561.152 216.06399999999996h-60.416c-7.168 0-13.312-6.144-13.312-13.312s6.144-13.312 13.312-13.312h60.416c7.168 0 13.312 6.144 13.312 13.312s-6.144 13.312-13.312 13.312z"  horiz-adv-x="1024" />

    
    <glyph glyph-name="lvyuerecord" unicode="&#58902;" d="M945.164123 895.921237v-1023.921237H78.769231V895.921237l187.692639 0.078763A118.144758 118.144758 0 0 1 354.440333 699.013307h315.052688a118.144758 118.144758 0 0 1 87.978463 196.986693L945.164123 895.921237zM472.585091 541.486963h78.763172v-236.289517h-78.763172zM472.585091 305.197446h275.671102v-78.763172h-275.671102zM374.131126 895.921237h275.671102a59.072379 59.072379 0 0 0 0-118.144758h-275.671102a59.072379 59.072379 0 0 0 0 118.144758z"  horiz-adv-x="1024" />

    
    <glyph glyph-name="yushoukuan" unicode="&#58913;" d="M181.677419 730.83871h726.709678v-858.83871H181.677419zM115.612903 631.741935m0 66.064517l0 0q0 66.064516 66.064516 66.064516l66.064516 0q66.064516 0 66.064517-66.064516l0 0q0-66.064516-66.064517-66.064517l-66.064516 0q-66.064516 0-66.064516 66.064517ZM214.709677 499.612903V896l264.258065-198.193548zM668.011355 499.612903L710.193548 454.755097l-122.979096-130.741678h107.024516v-63.454967h-119.378581v-63.454968h119.345548v-63.454968h-119.345548V70.193548h-59.656258l-0.033032 63.454968H395.858581v63.421936l119.312516 0.033032v63.454968H395.858581v63.421935l106.958451 0.033032L379.870968 454.755097 422.053161 499.612903 545.032258 368.838194 668.011355 499.612903z"  horiz-adv-x="1024" />

    
    <glyph glyph-name="fukuandan" unicode="&#58914;" d="M229.517241 790.068966h776.827587v-918.068966H229.517241zM370.758621 507.586207h494.344827v-70.62069H370.758621zM370.758621 331.034483h494.344827v-70.62069H370.758621zM370.758621 154.482759h353.103448v-70.62069H370.758621zM229.517241 896l211.862069-211.862069H300.102621L300.137931 578.206897H158.896552l-0.035311 105.931034H17.655172l211.862069 211.862069z"  horiz-adv-x="1024" />

    
    <glyph glyph-name="huikuanrecord" unicode="&#58915;" d="M229.517241 790.068966h776.827587v-918.068966H229.517241zM370.758621 507.586207h494.344827v-70.62069H370.758621zM370.758621 331.034483h494.344827v-70.62069H370.758621zM370.758621 154.482759h353.103448v-70.62069H370.758621zM229.517241 578.206897l211.862069 211.862069H300.102621L300.137931 896H158.896552l-0.035311-105.931034H17.655172l211.862069-211.862069z"  horiz-adv-x="1024" />

    
    <glyph glyph-name="xiaoxianginvoice" unicode="&#58916;" d="M945.230769 26.466462L790.055385-128H78.769231V896h41.353846a98.461538 98.461538 0 0 1 192.984615 0h3.938462a98.461538 98.461538 0 0 1 192.984615 0h3.938462a98.461538 98.461538 0 0 1 192.984615 0h3.938462a98.461538 98.461538 0 0 1 192.984615 0H945.230769v-869.533538zM708.923077 108.307692h236.307692l-236.307692-236.307692zM196.923077 580.923077h630.153846v-78.769231H196.923077zM196.923077 384h275.692308v-78.769231H196.923077z"  horiz-adv-x="1024" />

    
    <glyph glyph-name="Productcategory" unicode="&#58901;" d="M787.692308 896a236.307692 236.307692 0 1 0 0-472.615385h-236.307693V659.692308a236.307692 236.307692 0 0 0 236.307693 236.307692zM236.307692 896a236.307692 236.307692 0 0 0 236.307693-236.307692v-236.307693H236.307692A236.307692 236.307692 0 1 0 236.307692 896zM551.384615 344.615385h236.307693a236.307692 236.307692 0 1 0-236.307693-236.307693v236.307693zM236.307692 344.615385h236.307693v-236.307693a236.307692 236.307692 0 1 0-236.307693 236.307693zM169.353846 396.996923l355.643077 368.324923 368.324923-355.643077-355.643077-368.324923zM787.692308 344.615385c13.508923 0 26.742154-1.142154 39.620923-3.308308l-271.123693-280.733539A237.371077 237.371077 0 0 0 551.384615 108.307692v236.307693h236.307693z m-315.076923 0v-236.307693l-0.07877-4.01723-248.516923 240.009846C228.036923 344.497231 232.172308 344.615385 236.307692 344.615385h236.307693z m89.324307 385.063384l303.576616-293.179077A235.953231 235.953231 0 0 0 787.692308 423.384615h-236.307693V659.692308c0 24.379077 3.702154 47.891692 10.555077 69.986461zM472.615385 659.692308v-236.307693H236.307692c-13.075692 0-25.954462 1.063385-38.439384 3.111385l270.178461 279.748923C471.04 691.2 472.615385 675.603692 472.615385 659.692308z"  horiz-adv-x="1024" />

    
    <glyph glyph-name="Marketingactivities" unicode="&#58900;" d="M597.333333 682.666667h512v-256H597.333333zM0 682.666667h512v-256H0zM597.333333 384h426.666667v-512H597.333333zM85.333333 384h426.666667v-512H85.333333zM170.666667 896l384-128v-170.666667H170.666667zM938.666667 896l-384-128v-170.666667h384zM170.666667 682.666667h341.333333v-85.333334H170.666667zM597.333333 682.666667h341.333334v-85.333334h-341.333334z"  horiz-adv-x="1109" />

    
    <glyph glyph-name="Genjinrecord1" unicode="&#58903;" d="M929.185185-52.148148V782.222222h75.851852v-910.222222H132.740741v75.851852h796.444444zM132.740741 896h758.518518v-910.222222H132.740741zM246.518519 706.37037h493.037037v-75.851851H246.518519zM246.518519 516.740741h493.037037v-75.851852H246.518519zM246.518519 327.111111h303.407407v-75.851852H246.518519zM18.962963 782.222222h189.62963v-606.814815H18.962963zM208.592593 782.222222v-606.814815H132.740741V782.222222h75.851852z"  horiz-adv-x="1024" />

    
    <glyph glyph-name="Signin" unicode="&#58904;" d="M984.615385 896v-988.868923L39.384615-88.615385V896h157.538462v-157.538462h630.153846V896h157.538462zM512 29.538462c0 117.208615 196.923077 275.534769 196.923077 387.702153C708.923077 529.329231 620.740923 620.307692 512 620.307692s-196.923077-90.939077-196.923077-203.067077c0-112.167385 196.923077-273.604923 196.923077-387.702153zM512 423.384615m-78.769231 0a78.769231 78.769231 0 1 1 157.538462 0 78.769231 78.769231 0 1 1-157.538462 0ZM236.307692 896h78.769231v-118.153846H236.307692zM354.461538 896h315.076924v-157.538462H354.461538zM708.923077 896h78.769231v-118.153846h-78.769231z"  horiz-adv-x="1024" />

    
    <glyph glyph-name="Workreport" unicode="&#58905;" d="M962.56-128H61.44V736.58368L222.69952 896H962.56zM266.24 691.2H61.44l204.8 204.8zM231.87456 230.4l158.80192 139.96032 185.5488-163.84 266.07616 234.00448-54.10816 61.52192-211.84512-186.368-185.63072 163.88096-212.992-187.71968z"  horiz-adv-x="1024" />

    
    <glyph glyph-name="Keyopportunities1" unicode="&#58906;" d="M532.48 322.56l450.56-450.56H81.92l450.56 450.56zM20.48 834.56l450.56-450.56-450.56-450.56v901.12z m1024 0v-901.12l-450.56 450.56 450.56 450.56zM983.04 896L532.48 445.44 81.92 896h901.12zM204.8 732.16h655.36v-655.36H204.8zM532.48 322.56l245.76-245.76H286.76096L532.48 322.56zM204.8 650.24l266.24-266.24L204.8 117.76V650.24z m655.36 0v-532.48l-266.24 266.24L860.16 650.24z m-40.96 81.92l-286.72-286.72-286.67904 286.72H819.2z"  horiz-adv-x="1064" />

    
    <glyph glyph-name="Contractorder1" unicode="&#58907;" d="M94.814815 820.148148h834.37037v-800.540444L779.870815-128H94.814815zM739.555556 61.62963h189.629629l-189.629629-189.62963zM343.22963 421.925926l134.068148-134.106074 241.398518 241.360592 53.62726-53.627259-294.987852-294.987852-187.733334 187.733334L343.22963 421.925926zM246.518519 896h530.962962v-189.62963H246.518519zM246.518519 820.148148h530.962962v-113.777778H246.518519z"  horiz-adv-x="1024" />

    
    <glyph glyph-name="Quotation" unicode="&#58908;" d="M945.230769 896v-1024H78.769231V896h170.653538L315.076923 699.076923h393.846154l65.654154 196.923077H945.230769zM658.628923 580.923077L708.923077 527.438769l-146.628923-155.884307h127.606154v-75.657847h-142.336v-75.657846h142.296615v-75.657846h-142.296615V68.923077h-71.128616l-0.039384 75.657846H334.139077v75.618462l142.257231 0.039384v75.657846H334.139077v75.618462l127.527385 0.039385L315.076923 527.438769 365.371077 580.923077 512 424.999385 658.628923 580.923077zM354.461538 896h315.076924l-39.384616-118.153846H393.846154z"  horiz-adv-x="1024" />

    
    <glyph glyph-name="Allopportunities1" unicode="&#58909;" d="M603.428571 676.571429h365.714286v-365.714286H603.428571zM603.428571 237.714286h365.714286v-365.714286H603.428571zM164.571429 310.857143h365.714285v-438.857143H164.571429zM54.857143 896h621.714286v-621.714286H54.857143zM274.285714 676.571429h182.857143v-182.857143H274.285714zM530.285714 310.857143v-36.571429H164.571429v36.571429h365.714285z m146.285715 365.714286v-365.714286h-73.142858V676.571429h73.142858z"  horiz-adv-x="1024" />

    
    <glyph glyph-name="Productmanagement" unicode="&#58910;" d="M0 554.666667h1066.666667v-682.666667H0zM0 896h1066.666667v-682.666667H0zM0 554.666667h1066.666667v-341.333334H0zM682.666667 426.666667h341.333333v-85.333334h-341.333333z"  horiz-adv-x="1066" />

    
    <glyph glyph-name="Customersghc1" unicode="&#58911;" d="M36.571429 274.285714l360.301714 146.285715h224.365714L987.428571 274.285714v-402.285714H36.571429zM317.952 120.100571c139.190857 0 177.225143-125.549714 350.208-125.549714 152.868571 0 180.297143 75.702857 319.268571 93.257143V-128H36.571429v137.179429c128.402286 28.086857 165.814857 110.921143 281.380571 110.921142zM512 603.428571m-292.571429 0a292.571429 292.571429 0 1 1 585.142858 0 292.571429 292.571429 0 1 1-585.142858 0ZM621.238857 420.571429l86.491429-34.596572A291.474286 291.474286 0 0 0 512 310.857143a291.510857 291.510857 0 0 0-197.12 76.397714L396.836571 420.571429h224.365715z"  horiz-adv-x="1024" />

    
    <glyph glyph-name="contacts1" unicode="&#58912;" d="M335.448276 436.965517h635.586207v-282.482758a282.482759 282.482759 0 0 0-282.482759-282.482759H335.448276a282.482759 282.482759 0 1 0 0 564.965517zM370.758621 13.241379a141.241379 141.241379 0 0 0-141.24138 141.24138 35.310345 35.310345 0 0 1-70.620689 0 211.862069 211.862069 0 0 1 211.862069-211.862069 35.310345 35.310345 0 0 1 0 70.620689zM512 613.517241m-282.482759 0a282.482759 282.482759 0 1 1 564.965518 0 282.482759 282.482759 0 1 1-564.965518 0ZM732.513103 436.965517A281.953103 281.953103 0 0 0 512 331.034483a281.917793 281.917793 0 0 0-218.041379 102.859034A280.681931 280.681931 0 0 0 335.448276 436.965517zM759.172414 611.010207C759.172414 748.897103 648.509793 860.689655 512 860.689655S264.827586 748.897103 264.827586 611.010207s494.344828-137.886897 494.344828 0z"  horiz-adv-x="1024" />

    
    <glyph glyph-name="customerschachong" unicode="&#58895;" d="M36.571429 274.285714l360.301714 146.285715h224.365714L987.428571 274.285714v-402.285714H36.571429zM512 603.428571m-292.571429 0a292.571429 292.571429 0 1 1 585.142858 0 292.571429 292.571429 0 1 1-585.142858 0ZM621.238857 420.571429l86.491429-34.596572A291.474286 291.474286 0 0 0 512 310.857143a291.510857 291.510857 0 0 0-197.12 76.397714L396.836571 420.571429h224.365715zM512 822.857143a219.428571 219.428571 0 1 0 0-438.857143 219.428571 219.428571 0 0 0 0 438.857143z m0-73.142857a146.285714 146.285714 0 1 1 0-292.571429 146.285714 146.285714 0 0 1 0 292.571429zM475.428571 420.571429h73.142858v-365.714286h-73.142858zM438.857143 237.714286h146.285714v-219.428572h-146.285714z"  horiz-adv-x="1024" />

    
    <glyph glyph-name="Allcustomers1" unicode="&#58894;" d="M36.571429 274.285714l360.301714 146.285715h224.365714L987.428571 274.285714v-402.285714H36.571429zM475.428571 274.285714h73.142858l36.571428-108.617143L512.036571-91.428571 438.857143 164.864zM475.428571 274.285714h73.142858l36.571428-108.617143-146.285714-0.804571zM512 603.428571m-292.571429 0a292.571429 292.571429 0 1 1 585.142858 0 292.571429 292.571429 0 1 1-585.142858 0ZM621.238857 420.571429l86.491429-34.596572A291.474286 291.474286 0 0 0 512 310.857143a291.510857 291.510857 0 0 0-197.12 76.397714L396.836571 420.571429h224.365715z"  horiz-adv-x="1024" />

    
    <glyph glyph-name="Keycustomers" unicode="&#58897;" d="M36.571429 274.285714l360.301714 146.285715h224.365714L987.428571 274.285714v-402.285714H36.571429zM512 603.428571m-292.571429 0a292.571429 292.571429 0 1 1 585.142858 0 292.571429 292.571429 0 1 1-585.142858 0ZM475.428571 896h73.142858v-658.285714h-73.142858zM512 182.857143l-150.454857-79.104 28.708571 167.533714-121.709714 118.674286 168.228571 24.466286L512 566.857143l75.227429-152.429714 168.228571-24.466286-121.709714-118.674286 28.708571-167.533714z"  horiz-adv-x="1024" />

    
    <glyph glyph-name="FangkePlan" unicode="&#58898;" d="M950.857143 822.857143v-918.235429L73.142857-91.428571V822.857143h182.857143v-146.285714h512V822.857143h182.857143zM292.571429 896h73.142857v-182.857143H292.571429zM402.285714 896h219.428572v-182.857143H402.285714zM658.285714 896h73.142857v-182.857143h-73.142857zM365.714286 310.857143h292.571428a146.285714 146.285714 0 1 0 0-292.571429H365.714286a146.285714 146.285714 0 1 0 0 292.571429zM512 420.571429m-182.857143 0a182.857143 182.857143 0 1 1 365.714286 0 182.857143 182.857143 0 1 1-365.714286 0Z"  horiz-adv-x="1024" />

    
    <glyph glyph-name="kaipiaoinformation" unicode="&#58899;" d="M1280 725.333333v-2.133333a106.666667 106.666667 0 0 1 0-209.066667v-4.266666a106.666667 106.666667 0 0 1 0-209.066667v-4.266667a106.666667 106.666667 0 0 1 0-209.066666v-4.266667a106.666667 106.666667 0 0 1 0-209.066667V-128H85.333333v2.133333a106.666667 106.666667 0 0 1 0 209.066667v4.266667a106.666667 106.666667 0 0 1 0 209.066666v4.266667a106.666667 106.666667 0 0 1 0 209.066667v4.266666a106.666667 106.666667 0 0 1 0 209.066667V725.333333h1194.666667zM1194.666667 896v-2.133333a106.666667 106.666667 0 0 1 0-209.066667v-4.266667a106.666667 106.666667 0 0 1 0-209.066666v-4.266667a106.666667 106.666667 0 0 1 0-209.066667v-4.266666a106.666667 106.666667 0 0 1 0-209.066667V42.666667H0v2.133333a106.666667 106.666667 0 0 1 0 209.066667v4.266666a106.666667 106.666667 0 0 1 0 209.066667v4.266667a106.666667 106.666667 0 0 1 0 209.066666v4.266667a106.666667 106.666667 0 0 1 0 209.066667V896h1194.666667zM256 640h682.666667v-85.333333H256zM256 426.666667h298.666667v-85.333334H256z"  horiz-adv-x="1280" />

    


  </font>
</defs>
</svg>
